<svg xmlns="http://www.w3.org/2000/svg" viewBox="0 0 400 600" fill="none">
  <rect width="400" height="600" fill="#121018"/>
  <rect x="20" y="24" width="360" height="552" rx="14" fill="#1d1828" stroke="#342a45"/>
  <rect x="44" y="52" width="220" height="12" rx="6" fill="#ca5100"/>
  <rect x="44" y="80" width="300" height="6" rx="3" fill="#ffffff" opacity="0.3"/>
  <rect x="44" y="96" width="260" height="6" rx="3" fill="#ffffff" opacity="0.22"/>
  <rect x="44" y="128" width="312" height="180" rx="10" fill="#120f1a"/>
  <rect x="68" y="160" width="72" height="120" rx="6" fill="#0058fe" opacity="0.35"/>
  <rect x="156" y="190" width="72" height="90" rx="6" fill="#ca5100" opacity="0.35"/>
  <rect x="244" y="150" width="72" height="130" rx="6" fill="#6b4cff" opacity="0.35"/>
  <rect x="44" y="330" width="312" height="6" rx="3" fill="#ffffff" opacity="0.2"/>
  <rect x="44" y="348" width="280" height="6" rx="3" fill="#ffffff" opacity="0.16"/>
  <rect x="44" y="380" width="120" height="120" rx="60" stroke="#0058fe" stroke-width="8" opacity="0.45"/>
  <rect x="190" y="392" width="166" height="8" rx="4" fill="#ffffff" opacity="0.18"/>
  <rect x="190" y="412" width="140" height="8" rx="4" fill="#ffffff" opacity="0.14"/>
</svg>
