<svg xmlns="http://www.w3.org/2000/svg" viewBox="0 0 400 600" fill="none">
  <rect width="400" height="600" fill="#0b1020"/>
  <rect x="24" y="28" width="352" height="544" rx="12" fill="#141b31" stroke="#24304f"/>
  <rect x="48" y="56" width="170" height="10" rx="5" fill="#ca5100"/>
  <rect x="48" y="82" width="286" height="6" rx="3" fill="#ffffff" opacity="0.33"/>
  <rect x="48" y="98" width="250" height="6" rx="3" fill="#ffffff" opacity="0.24"/>
  <rect x="48" y="130" width="304" height="140" rx="8" fill="#0d1426"/>
  <rect x="72" y="160" width="256" height="12" rx="6" fill="#0058fe" opacity="0.35"/>
  <rect x="72" y="186" width="220" height="12" rx="6" fill="#ffffff" opacity="0.12"/>
  <rect x="72" y="212" width="190" height="12" rx="6" fill="#ffffff" opacity="0.1"/>
  <rect x="72" y="238" width="240" height="12" rx="6" fill="#ca5100" opacity="0.28"/>
  <rect x="48" y="292" width="304" height="6" rx="3" fill="#ffffff" opacity="0.2"/>
  <rect x="48" y="310" width="280" height="6" rx="3" fill="#ffffff" opacity="0.16"/>
  <rect x="48" y="344" width="304" height="160" rx="10" fill="#0d1426" stroke="#24304f"/>
  <text x="68" y="390" fill="#0058fe" font-family="JetBrains Mono, monospace" font-size="22">integral f(x) dx</text>
  <text x="68" y="430" fill="#ca5100" font-family="JetBrains Mono, monospace" font-size="20">div E = rho / eps0</text>
  <text x="68" y="470" fill="#ffffff" opacity="0.5" font-family="JetBrains Mono, monospace" font-size="18">L = -sum y log yhat</text>
</svg>
