<svg xmlns="http://www.w3.org/2000/svg" viewBox="0 0 400 600" fill="none">
  <rect width="400" height="600" fill="#0f1117"/>
  <rect x="24" y="28" width="352" height="544" rx="12" fill="#1a1f2e" stroke="#2a3348" stroke-width="2"/>
  <rect x="48" y="56" width="180" height="10" rx="5" fill="#0058fe" opacity="0.9"/>
  <rect x="48" y="82" width="280" height="6" rx="3" fill="#ffffff" opacity="0.35"/>
  <rect x="48" y="98" width="240" height="6" rx="3" fill="#ffffff" opacity="0.25"/>
  <rect x="48" y="130" width="304" height="120" rx="8" fill="#111827" stroke="#243044"/>
  <path d="M72 220 L120 170 L168 190 L232 120 L328 210" stroke="#0058fe" stroke-width="4" stroke-linecap="round"/>
  <circle cx="120" cy="170" r="6" fill="#ca5100"/>
  <circle cx="232" cy="120" r="6" fill="#0058fe"/>
  <rect x="48" y="270" width="304" height="6" rx="3" fill="#ffffff" opacity="0.22"/>
  <rect x="48" y="288" width="280" height="6" rx="3" fill="#ffffff" opacity="0.18"/>
  <rect x="48" y="306" width="260" height="6" rx="3" fill="#ffffff" opacity="0.18"/>
  <rect x="48" y="340" width="140" height="28" rx="6" fill="#0058fe" opacity="0.25"/>
  <rect x="200" y="340" width="152" height="28" rx="6" fill="#ca5100" opacity="0.22"/>
</svg>
